#!OML:ASF H:\IndianDance\Patient Classification 1\Patient 1\Session 1\dancer.ASF
:FULLY-SPECIFIED
:DEGREES
1872
root -3.41069 14.9991 16.9862 930.264 -98.2096 -203.251
lowerback 6.12818 0.582923 -2.58791
upperback -7.34726 0.433356 0.658992
thorax -11.3678 0.408238 2.10485
lowerneck -21.0374 -0.879246 -0.22796
upperneck 24.393 -3.99103 8.66916
head 11.6997 -0.80112 2.59426
rclavicle 2.33572e-015 1.59028e-015
rhumerus -53.2623 43.056 -48.1933
rradius 101.28
rwrist -38.7044
rhand 12.9179 1.37547
rfingers 7.12502
rthumb 37.8883 -24.4541
lclavicle 2.33572e-015 1.59028e-015
lhumerus -10.6082 -28.6323 7.07713
lradius 35.21
lwrist 4.64952
lhand -4.93911 16.8242
lfingers 7.12502
lthumb 20.8519 -314.276
rfemur -30.498 -25.1769 21.1696
rtibia 70.582
rfoot -21.7305 -11.6602
rtoes -2.44965
lfemur 151.095 156.204 160.552
ltibia 49.1844
lfoot -18.2448 -4.6392
ltoes 0.0177857
1873
root -3.39897 14.9765 16.9563 931.707 -98.4493 -204.663
lowerback 6.47064 0.541793 -2.39877
upperback -7.2673 0.40508 0.732262
thorax -11.4816 0.385736 2.08151
lowerneck -21.1726 -0.929223 -0.184111
upperneck 23.9718 -4.03532 8.69719
head 11.5681 -0.816811 2.58106
rclavicle -6.80837e-015 3.57812e-015
rhumerus -53.5654 42.3293 -47.6777
rradius 101.902
rwrist -38.8294
rhand 12.938 1.85591
rfingers 7.12502
rthumb 37.9073 -23.9685
lclavicle -6.80837e-015 3.57812e-015
lhumerus -10.763 -27.9193 6.48327
lradius 34.0202
lwrist 3.50909
lhand -4.00647 17.0699
lfingers 7.12502
lthumb 21.7477 -314.132
rfemur -30.5908 -25.6455 20.952
rtibia 71.7713
rfoot -21.6437 -11.5615
rtoes -2.72217
lfemur 150.487 155.63 160.946
ltibia 49.9386
lfoot -18.2814 -5.13641
ltoes -0.814747
1874
root -3.38658 14.9528 16.9261 932.773 -98.6318 -205.697
lowerback 6.83169 0.525237 -2.25364
upperback -7.18744 0.402451 0.772794
thorax -11.6092 0.377686 2.04353
lowerneck -21.2971 -0.956156 -0.120731
upperneck 23.5215 -4.05299 8.73472
head 11.4227 -0.818973 2.57191
rclavicle -2.23633e-015 -1.98785e-015
rhumerus -53.9045 41.617 -47.2073
rradius 102.624
rwrist -38.9378
rhand 13.1263 2.31588
rfingers 7.12502
rthumb 38.0851 -23.4601
lclavicle -2.23633e-015 -1.98785e-015
lhumerus -10.9065 -27.1111 5.93872
lradius 33.0033
lwrist 2.56294
lhand -3.13056 17.2483
lfingers 7.12502
lthumb 22.5887 -314.053
rfemur -30.665 -26.1089 20.6163
rtibia 72.8841
rfoot -21.5572 -11.4175
rtoes -2.94052
lfemur 149.935 155.069 161.255
ltibia 50.6033
lfoot -18.3509 -5.5466
ltoes -1.39363
1875
root -3.37354 14.9285 16.8949 933.649 -98.7542 -206.53
lowerback 7.20463 0.535207 -2.1473
upperback -7.11213 0.428745 0.786006
thorax -11.7513 0.385424 1.99287
lowerneck -21.4126 -0.960941 -0.0441056
upperneck 23.0465 -4.04749 8.79352
head 11.2665 -0.808347 2.57172
rclavicle 1.15792e-014 -1.19271e-014
rhumerus -54.2715 40.9152 -46.788
rradius 103.429
rwrist -39.0806
rhand 13.5214 2.70478
rfingers 7.12502
rthumb 38.4581 -22.9683
lclavicle 1.15792e-014 -1.19271e-014
lhumerus -11.0411 -26.186 5.43985
lradius 32.1456
lwrist 1.73977
lhand -2.39932 17.2797
lfingers 7.12502
lthumb 23.2903 -314.109
rfemur -30.7403 -26.5428 20.2046
rtibia 73.9134
rfoot -21.4554 -11.2591
rtoes -3.12876
lfemur 149.427 154.513 161.49
ltibia 51.1698
lfoot -18.4722 -5.83102
ltoes -1.80004
1876
root -3.36022 14.9035 16.8624 934.351 -98.8217 -207.179
lowerback 7.58029 0.567947 -2.0818
upperback -7.04153 0.478253 0.772156
thorax -11.9022 0.406237 1.93145
lowerneck -21.5079 -0.94489 0.0430766
upperneck 22.5439 -4.0199 8.87577
head 11.0967 -0.785994 2.58129
rclavicle 1.64991e-014 6.36111e-015
rhumerus -54.6507 40.2232 -46.4191
rradius 104.3
rwrist -39.3132
rhand 14.1067 2.97852
rfingers 7.12502
rthumb 39.0101 -22.5386
lclavicle 1.64991e-014 6.36111e-015
lhumerus -11.1576 -25.1213 4.97996
lradius 31.456
lwrist 1.05839
lhand -1.69635 17.2307
lfingers 7.12502
lthumb 23.9646 -314.245
rfemur -30.8207 -26.953 19.7285
rtibia 74.8561
rfoot -21.3345 -11.0979
rtoes -3.23557
lfemur 148.964 153.961 161.644
ltibia 51.6392
lfoot -18.6592 -5.9649
ltoes -2.07367
1877
root -3.34666 14.878 16.8279 935.013 -98.8418 -207.768
lowerback 7.94748 0.620955 -2.04836
upperback -6.98118 0.548848 0.738395
thorax -12.0611 0.43862 1.86208
lowerneck -21.5727 -0.910248 0.132876
upperneck 22.0102 -3.97205 8.98875
head 10.9107 -0.753148 2.60401
rclavicle -9.79014e-015 -2.78299e-015
rhumerus -55.037 39.5478 -46.1082
rradius 105.219
rwrist -39.6301
rhand 14.8192 3.13896
rfingers 7.12502
rthumb 39.6815 -22.1824
lclavicle -9.79014e-015 -2.78299e-015
lhumerus -11.2748 -23.995 4.55216
lradius 30.9308
lwrist 0.500004
lhand -1.16795 17.0041
lfingers 7.12502
lthumb 24.4712 -314.539
rfemur -30.9302 -27.3303 19.2324
rtibia 75.7131
rfoot -21.196 -10.9578
rtoes -3.25079
lfemur 148.515 153.402 161.725
ltibia 52.0285
lfoot -18.9122 -5.92839
ltoes -2.21881
1878
root -3.33339 14.852 16.7909 935.697 -98.8216 -208.362
lowerback 8.29826 0.689651 -2.04362
upperback -6.92771 0.635129 0.689994
thorax -12.2189 0.479838 1.78924
lowerneck -21.6075 -0.85426 0.223581
upperneck 21.4476 -3.89911 9.13151
head 10.7095 -0.707962 2.64036
rclavicle 1.52567e-014 5.1684e-015
rhumerus -55.4152 38.895 -45.8586
rradius 106.168
rwrist -39.9885
rhand 15.5712 3.20827
rfingers 7.12502
rthumb 40.3891 -21.8992
lclavicle 1.52567e-014 5.1684e-015
lhumerus -11.3891 -22.857 4.15262
lradius 30.5626
lwrist 0.101172
lhand -0.756812 16.7559
lfingers 7.12502
lthumb 24.8653 -314.841
rfemur -31.0724 -27.6782 18.7402
rtibia 76.4877
rfoot -21.0422 -10.8577
rtoes -3.16257
lfemur 148.069 152.823 161.742
ltibia 52.3641
lfoot -19.219 -5.72517
ltoes -2.17472
1879
root -3.3201 14.8254 16.7519 936.305 -98.769 -208.851
lowerback 8.62361 0.766812 -2.06838
upperback -6.88565 0.726287 0.622707
thorax -12.3748 0.524515 1.71063
lowerneck -21.6095 -0.779428 0.309906
upperneck 20.8596 -3.80201 9.30139
head 10.4941 -0.651735 2.68987
rclavicle -1.75924e-014 -1.19271e-015
rhumerus -55.7786 38.2667 -45.6706
rradius 107.129
rwrist -40.32
rhand 16.2374 3.2369
rfingers 7.12502
rthumb 41.0151 -21.6747
lclavicle -1.75924e-014 -1.19271e-015
lhumerus -11.4873 -21.7804 3.77521
lradius 30.3332
lwrist -0.106484
lhand -0.428271 16.59
lfingers 7.12502
lthumb 25.1801 -315.051
rfemur -31.2667 -28.0293 18.2485
rtibia 77.1873
rfoot -20.8979 -10.7971
rtoes -3.04052
lfemur 147.589 152.234 161.669
ltibia 52.677
lfoot -19.5611 -5.36764
ltoes -1.94227
1880
root -3.30671 14.7979 16.7105 936.941 -98.6907 -209.343
lowerback 8.91833 0.851916 -2.11472
upperback -6.85169 0.823466 0.544216
thorax -12.5217 0.572874 1.62992
lowerneck -21.5835 -0.68514 0.400625
upperneck 20.2528 -3.67862 9.48122
head 10.2672 -0.584541 2.74503
rclavicle 3.18304e-014 3.97569e-015
rhumerus -56.1153 37.6623 -45.5339
rradius 108.095
rwrist -40.5543
rhand 16.7447 3.27282
rfingers 7.12502
rthumb 41.4913 -21.4854
lclavicle 3.18304e-014 3.97569e-015
lhumerus -11.5605 -20.8221 3.41211
lradius 30.2171
lwrist -0.144968
lhand -0.127097 16.4865
lfingers 7.12502
lthumb 25.4686 -315.195
rfemur -31.5231 -28.3795 17.7923
rtibia 77.8187
rfoot -20.7671 -10.792
rtoes -2.88565
lfemur 147.05 151.631 161.531
ltibia 53.0026
lfoot -19.9148 -4.88433
ltoes -1.62224
1881
root -3.29349 14.7693 16.667 937.563 -98.5919 -209.795
lowerback 9.17137 0.939633 -2.1775
upperback -6.82277 0.920383 0.455119
thorax -12.6489 0.621419 1.54625
lowerneck -21.5201 -0.574358 0.518102
upperneck 19.622 -3.52846 9.62984
head 10.0241 -0.50957 2.78705
rclavicle 1.33186e-014 -4.77083e-015
rhumerus -56.4062 37.0885 -45.4281
rradius 109.057
rwrist -40.6433
rhand 17.0716 3.35333
rfingers 7.12502
rthumb 41.798 -21.304
lclavicle 1.33186e-014 -4.77083e-015
lhumerus -11.5977 -20.0046 3.06143
lradius 30.1601
lwrist -0.108348
lhand 0.174187 16.4225
lfingers 7.12502
lthumb 25.7572 -315.301
rfemur -31.8429 -28.7529 17.3683
rtibia 78.3858
rfoot -20.6583 -10.8341
rtoes -2.72902
lfemur 146.434 151.026 161.33
ltibia 53.3714
lfoot -20.2601 -4.31403
ltoes -1.28451
1882
root -3.27995 14.7393 16.6218 938.235 -98.475 -210.272
lowerback 9.38153 1.02884 -2.24518
upperback -6.79709 1.01778 0.359566
thorax -12.7534 0.669739 1.45772
lowerneck -21.4345 -0.446591 0.662488
upperneck 18.9824 -3.35051 9.73673
head 9.7729 -0.426527 2.81281
rclavicle -3.2054e-015 1.90833e-014
rhumerus -56.6289 36.5514 -45.3306
rradius 110.009
rwrist -40.5563
rhand 17.2406 3.48535
rfingers 7.12502
rthumb 41.9563 -21.1193
lclavicle -3.2054e-015 1.90833e-014
lhumerus -11.5962 -19.3509 2.71937
lradius 30.1269
lwrist -0.0735317
lhand 0.499528 16.3662
lfingers 7.12502
lthumb 26.0687 -315.403
rfemur -32.2391 -29.1521 16.9959
rtibia 78.8923
rfoot -20.5752 -10.9193
rtoes -2.59317
lfemur 145.73 150.434 161.09
ltibia 53.806
lfoot -20.5787 -3.70649
ltoes -0.961689
1883
root -3.26608 14.7074 16.5747 939.083 -98.3412 -210.906
lowerback 9.54496 1.12043 -2.30772
upperback -6.77125 1.1198 0.266538
thorax -12.8289 0.719413 1.36797
lowerneck -21.3321 -0.301214 0.837655
upperneck 18.3408 -3.14187 9.78368
head 9.51665 -0.335188 2.81601
rclavicle -2.2649e-014 -7.95139e-016
rhumerus -56.7577 36.0622 -45.2175
rradius 110.94
rwrist -40.2821
rhand 17.2775 3.66518
rfingers 7.12502
rthumb 41.9909 -20.9279
lclavicle -2.2649e-014 -7.95139e-016
lhumerus -11.5431 -18.8374 2.3878
lradius 30.0841
lwrist -0.0585351
lhand 0.962871 16.4136
lfingers 7.12502
lthumb 26.5123 -315.421
rfemur -32.7179 -29.5703 16.7021
rtibia 79.3387
rfoot -20.5195 -11.0514
rtoes -2.50634
lfemur 144.943 149.863 160.849
ltibia 54.3192
lfoot -20.8641 -3.1141
ltoes -0.708066
1884
root -3.2519 14.6738 16.5269 940 -98.1852 -211.593
lowerback 9.66325 1.21097 -2.36494
upperback -6.74272 1.22157 0.171586
thorax -12.873 0.767905 1.27329
lowerneck -21.2123 -0.139002 1.04429
upperneck 17.7031 -2.90186 9.75731
head 9.25725 -0.23613 2.79228
rclavicle 1.47598e-014 9.54166e-015
rhumerus -56.7733 35.6329 -45.0697
rradius 111.834
rwrist -39.8343
rhand 17.2007 3.86729
rfingers 7.12502
rthumb 41.9189 -20.7499
lclavicle 1.47598e-014 9.54166e-015
lhumerus -11.4338 -18.4022 2.07301
lradius 29.9803
lwrist -0.138779
lhand 1.54392 16.4675
lfingers 7.12502
lthumb 27.0683 -315.453
rfemur -33.2702 -30.0343 16.4592
rtibia 79.7217
rfoot -20.4735 -11.215
rtoes -2.40886
lfemur 144.097 149.339 160.605
ltibia 54.9068
lfoot -21.1161 -2.55424
ltoes -0.580223
1885
root -3.23747 14.6383 16.4782 941.176 -98.0069 -212.534
lowerback 9.74042 1.30229 -2.40189
upperback -6.70967 1.32927 0.0849858
thorax -12.8861 0.817501 1.17552
lowerneck -21.0834 0.041884 1.28124
upperneck 17.0842 -2.62947 9.65321
head 9.00165 -0.128253 2.74115
rclavicle 3.11533e-014 4.77083e-015
rhumerus -56.66 35.2769 -44.8775
rradius 112.675
rwrist -39.2434
rhand 17.0369 4.08761
rfingers 7.12502
rthumb 41.7654 -20.5806
lclavicle 3.11533e-014 4.77083e-015
lhumerus -11.2815 -18.0066 1.77888
lradius 29.8228
lwrist -0.274772
lhand 2.28812 16.6361
lfingers 7.12502
lthumb 27.7801 -315.397
rfemur -33.896 -30.5298 16.3018
rtibia 80.0369
rfoot -20.4428 -11.4311
rtoes -2.35585
lfemur 143.219 148.852 160.401
ltibia 55.5598
lfoot -21.3363 -2.02403
ltoes -0.652543
1886
root -3.22304 14.6012 16.4289 942.716 -97.804 -213.85
lowerback 9.7871 1.39632 -2.4124
upperback -6.66818 1.44713 0.01108
thorax -12.8701 0.87003 1.07518
lowerneck -20.9549 0.241667 1.53275
upperneck 16.4963 -2.32486 9.48301
head 8.75655 -0.01027 2.6698
rclavicle 2.16458e-014 1.19271e-014
rhumerus -56.4109 34.999 -44.6354
rradius 113.447
rwrist -38.5725
rhand 16.7757 4.32352
rfingers 7.12502
rthumb 41.5204 -20.4252
lclavicle 2.16458e-014 1.19271e-014
lhumerus -11.0889 -17.6008 1.51177
lradius 29.5839
lwrist -0.46239
lhand 3.09871 16.8385
lfingers 7.12502
lthumb 28.5549 -315.322
rfemur -34.5827 -31.05 16.2406
rtibia 80.2786
rfoot -20.4247 -11.7214
rtoes -2.29642
lfemur 142.348 148.396 160.265
ltibia 56.2588
lfoot -21.5319 -1.54672
ltoes -0.869038
